<?xml version="1.0" standalone="no"?>
<!DOCTYPE svg PUBLIC "-//W3C//DTD SVG 20010904//EN"
 "http://www.w3.org/TR/2001/REC-SVG-20010904/DTD/svg10.dtd">
<svg version="1.0" xmlns="http://www.w3.org/2000/svg"
 width="335.000000pt" height="360.000000pt" viewBox="0 0 335.000000 360.000000"
 preserveAspectRatio="xMidYMid meet">

<g transform="translate(0.000000,360.000000) scale(0.100000,-0.100000)"
fill="#000000" stroke="none">
<path d="M1560 2799 c-19 -6 -39 -15 -45 -21 -7 -8 -4 -8 10 -2 11 4 53 10 93
12 66 3 78 1 113 -22 21 -14 41 -26 43 -26 3 0 22 12 43 26 34 23 45 25 116
22 75 -3 77 -3 45 10 -42 18 -113 10 -167 -17 l-40 -21 -42 22 c-48 25 -119
32 -169 17z"/>
<path d="M2056 2754 c21 -14 50 -36 63 -48 22 -19 23 -20 11 -1 -14 24 -83 75
-100 75 -7 0 5 -12 26 -26z"/>
<path d="M1918 2693 c7 -3 16 -2 19 1 4 3 -2 6 -13 5 -11 0 -14 -3 -6 -6z"/>
<path d="M1988 2683 c7 -3 16 -2 19 1 4 3 -2 6 -13 5 -11 0 -14 -3 -6 -6z"/>
<path d="M1792 2616 c-14 -18 -22 -22 -30 -14 -8 8 -9 5 -5 -11 8 -30 18 -26
42 14 24 41 21 46 -7 11z"/>
<path d="M2100 2517 c0 -26 4 -36 11 -31 9 5 11 -11 7 -59 -8 -93 -37 -137
-200 -303 l-138 -140 2 -65 2 -64 3 55 4 54 153 153 c180 181 201 214 201 320
0 62 -3 76 -22 95 l-23 22 0 -37z"/>
<path d="M2382 2525 c-1 -17 -10 -42 -19 -55 l-18 -25 -7 35 -6 35 1 -40 c2
-29 7 -41 19 -43 23 -4 40 39 35 87 -3 33 -4 34 -5 6z"/>
<path d="M1013 2486 c0 -8 4 -13 8 -10 4 2 15 -6 23 -18 9 -12 16 -18 16 -12
0 6 -10 20 -23 32 -18 17 -24 19 -24 8z"/>
<path d="M2504 2482 c-11 -9 -33 -39 -49 -67 -49 -88 -102 -151 -159 -189 -57
-38 -70 -61 -39 -73 29 -11 143 121 194 224 41 83 51 98 74 106 6 3 8 7 5 10
-3 3 -15 -2 -26 -11z"/>
<path d="M2594 2470 c-7 -26 -17 -36 -41 -42 -18 -5 -34 -17 -38 -28 -3 -11
-17 -28 -31 -39 -28 -22 -30 -31 -6 -31 37 0 83 40 108 95 14 31 24 60 22 67
-2 6 -8 -4 -14 -22z"/>
<path d="M1196 2468 c-9 -30 -21 -36 -29 -15 -4 9 -6 9 -6 -1 -1 -17 28 -27
41 -14 5 5 8 20 6 33 -4 24 -5 23 -12 -3z"/>
<path d="M966 2399 c16 -32 68 -69 96 -69 15 0 16 4 6 25 -6 13 -14 22 -19 20
-4 -3 -10 -1 -14 5 -3 6 -24 19 -45 29 l-39 19 15 -29z"/>
<path d="M1060 2425 c0 -3 14 -33 30 -66 35 -68 163 -209 191 -209 54 0 18 59
-62 100 -57 29 -92 67 -129 139 -20 37 -30 49 -30 36z"/>
<path d="M2262 2405 c0 -16 2 -22 5 -12 2 9 2 23 0 30 -3 6 -5 -1 -5 -18z"/>
<path d="M1915 2334 c-60 -20 -116 -38 -124 -40 -11 -4 -10 -8 4 -24 14 -16
20 -17 27 -8 5 9 8 5 8 -11 0 -16 -4 -21 -15 -17 -16 6 -16 -14 0 -26 6 -5 5
-8 -2 -8 -7 0 -10 -7 -6 -17 4 -10 2 -14 -4 -10 -5 3 -19 -11 -31 -32 -18 -32
-20 -41 -9 -50 11 -8 37 13 123 102 107 110 164 177 147 177 -4 0 -57 -17
-118 -36z"/>
<path d="M2200 2273 c-19 -33 -102 -127 -192 -219 l-158 -161 0 -64 c0 -58 2
-65 20 -65 18 0 20 7 20 66 l0 65 144 145 c132 132 216 240 216 277 0 26 -16
12 -50 -44z"/>
<path d="M1468 2255 c16 -31 292 -301 292 -287 0 10 -120 132 -294 299 -5 4
-4 -1 2 -12z"/>
<path d="M1337 2228 c20 -36 308 -328 323 -328 6 0 10 3 10 7 0 4 -72 80 -160
169 -88 89 -160 167 -160 173 0 6 -7 11 -16 11 -13 0 -13 -4 3 -32z"/>
<path d="M1094 2051 c4 -6 14 -11 22 -11 8 0 12 -4 9 -10 -3 -5 0 -8 7 -5 7 3
56 -31 108 -75 52 -44 103 -83 113 -86 21 -7 37 4 21 14 -5 4 -17 19 -27 35
-10 15 -24 27 -32 27 -8 0 -52 24 -97 54 -84 54 -137 79 -124 57z"/>
<path d="M2380 2032 c-30 -16 -75 -43 -99 -60 -24 -18 -50 -32 -57 -32 -7 0
-18 -9 -24 -19 -5 -11 -17 -27 -26 -36 -9 -9 -14 -19 -11 -22 9 -9 84 41 170
112 43 36 82 63 86 60 5 -2 14 2 21 10 18 22 2 18 -60 -13z"/>
<path d="M2547 2036 c-10 -8 -39 -17 -64 -21 -36 -5 -57 -17 -97 -54 -28 -27
-61 -54 -74 -60 -30 -16 -19 -31 21 -31 70 0 186 83 228 163 11 20 10 21 -14
3z"/>
<path d="M1011 1989 c38 -48 83 -83 132 -104 40 -17 93 -20 101 -6 3 5 -17 29
-44 55 -27 26 -50 49 -50 53 0 4 -18 8 -40 10 -22 2 -61 10 -85 18 l-45 13 31
-39z"/>
<path d="M2091 1913 c-52 -26 -81 -51 -81 -70 0 -33 83 -1 111 43 11 19 19 37
17 42 -2 4 -23 -3 -47 -15z"/>
<path d="M1407 1911 c8 -30 55 -70 91 -77 27 -5 32 -4 32 12 0 21 -22 38 -84
66 -47 22 -45 22 -39 -1z"/>
<path d="M1702 1885 c-7 -14 -12 -52 -12 -83 0 -64 14 -45 -177 -245 -92 -97
-144 -176 -142 -219 0 -18 4 -14 17 17 30 70 41 84 188 237 l144 149 0 85 c0
46 -2 84 -3 84 -2 0 -9 -11 -15 -25z"/>
<path d="M1753 1850 c0 -25 2 -35 4 -22 2 12 2 32 0 45 -2 12 -4 2 -4 -23z"/>
<path d="M1235 1787 c-22 -8 -53 -22 -68 -31 -16 -11 -39 -17 -57 -14 -44 7
-38 -17 11 -43 52 -26 135 -35 182 -20 44 15 132 90 119 103 -16 16 -144 19
-187 5z m125 -32 c-16 -19 -62 -27 -130 -23 l-55 3 35 17 c21 11 60 17 99 18
55 0 62 -2 51 -15z"/>
<path d="M1520 1793 c0 -4 -53 -62 -118 -128 -177 -182 -210 -257 -213 -486
l-2 -116 39 -74 c79 -153 236 -270 412 -307 85 -17 112 -13 112 18 0 16 -7 20
-30 20 -174 0 -376 135 -457 306 -34 72 -38 86 -37 159 2 167 45 283 145 390
35 38 92 98 127 133 35 35 61 69 59 75 -4 14 -37 22 -37 10z"/>
<path d="M1983 1784 c-7 -20 123 -153 150 -154 34 0 33 32 -4 59 -19 14 -52
45 -74 68 -43 46 -62 53 -72 27z"/>
<path d="M2165 1796 c-5 -2 -23 -7 -39 -11 l-28 -6 38 -35 c86 -78 184 -95
282 -49 63 29 70 55 15 55 -20 0 -57 10 -81 21 -40 20 -160 35 -187 25z m186
-49 c23 -17 21 -17 -51 -16 -86 1 -122 9 -128 28 -7 21 147 10 179 -12z"/>
<path d="M1871 1693 c173 -183 220 -233 253 -268 l37 -40 -16 33 c-19 39 -282
315 -305 320 -8 2 6 -18 31 -45z"/>
<path d="M2585 1621 c-3 -6 -40 -11 -83 -11 -79 -1 -95 -7 -131 -53 -11 -14
-3 -12 40 8 30 14 65 25 78 25 l24 0 -24 -26 c-27 -29 -82 -65 -104 -68 -23
-3 -28 -13 -21 -41 8 -32 20 -32 93 5 61 30 94 64 127 128 16 31 17 58 1 33z"/>
<path d="M971 1571 c31 -57 85 -104 143 -126 41 -16 49 -16 57 -4 12 19 7 54
-8 55 -7 1 -17 2 -23 3 -5 0 -34 21 -64 46 -31 25 -66 45 -79 45 -13 0 -29 6
-36 13 -8 6 -3 -8 10 -32z"/>
<path d="M1030 1600 c0 -5 11 -10 25 -10 14 0 48 -11 76 -25 46 -24 49 -24 40
-6 -6 11 -21 27 -33 35 -25 18 -108 22 -108 6z"/>
<path d="M2206 1567 c-17 -13 -15 -17 27 -59 56 -57 87 -136 94 -239 17 -244
-152 -468 -403 -534 -32 -8 -75 -15 -95 -15 -34 0 -36 -2 -31 -26 5 -26 6 -26
65 -19 217 24 423 190 488 394 28 86 30 242 4 316 -10 28 -21 52 -25 55 -13 9
-62 92 -49 84 7 -4 3 7 -10 24 -25 35 -38 39 -65 19z"/>
<path d="M1784 1425 c0 -49 1 -71 3 -48 2 23 2 64 0 90 -2 26 -3 8 -3 -42z"/>
<path d="M1753 1400 c0 -30 2 -43 4 -27 2 15 2 39 0 55 -2 15 -4 2 -4 -28z"/>
<path d="M2513 1353 c-23 -2 -47 -11 -54 -20 -11 -13 -10 -18 10 -34 13 -11
29 -19 37 -19 21 0 54 37 54 60 0 11 -1 19 -2 18 -2 -1 -22 -3 -45 -5z"/>
<path d="M980 1333 c0 -17 36 -53 53 -53 19 0 57 29 57 45 0 9 -17 14 -55 17
-39 2 -55 -1 -55 -9z"/>
<path d="M1710 1299 c-19 -6 -57 -27 -85 -46 -65 -47 -121 -71 -172 -74 -54
-4 -45 -19 10 -19 48 0 115 28 161 67 69 59 152 77 220 49 18 -7 55 -29 82
-48 27 -20 60 -41 74 -48 31 -17 99 -30 117 -23 24 9 14 18 -24 21 -41 3 -111
34 -193 86 -61 39 -132 52 -190 35z"/>
<path d="M2230 1292 c0 -10 -6 -26 -14 -37 -7 -11 -16 -44 -19 -74 -13 -112
-101 -242 -196 -291 -113 -57 -294 -66 -413 -21 -72 28 -159 106 -200 178 -16
29 -36 53 -44 53 -8 0 -14 5 -14 12 0 6 -3 9 -6 5 -11 -11 44 -116 86 -161 91
-99 207 -147 355 -148 155 -2 270 46 368 152 70 75 97 144 105 263 2 48 2 87
-2 87 -3 0 -6 -8 -6 -18z"/>
<path d="M1361 1264 c0 -11 3 -14 6 -6 3 7 2 16 -1 19 -3 4 -6 -2 -5 -13z"/>
<path d="M1850 1145 c-17 -25 -34 -45 -37 -45 -3 0 1 8 8 18 7 9 0 6 -16 -8
-46 -38 -52 -44 -35 -35 11 6 12 5 4 -4 -6 -6 -19 -13 -30 -16 -10 -2 -39 -12
-64 -21 -46 -16 -143 -16 -185 1 -49 20 33 -47 94 -78 58 -28 77 -32 163 -35
145 -6 252 38 318 130 l32 43 -29 3 c-56 5 -73 13 -118 52 -25 22 -52 40 -60
40 -8 0 -28 -20 -45 -45z"/>
<path d="M1062 1043 c2 -12 12 -18 28 -18 16 0 26 6 28 18 3 13 -3 17 -28 17
-25 0 -31 -4 -28 -17z"/>
<path d="M2422 1043 c2 -12 12 -18 28 -18 16 0 26 6 28 18 3 13 -3 17 -28 17
-25 0 -31 -4 -28 -17z"/>
<path d="M1383 664 c-3 -8 -1 -20 5 -26 16 -16 42 -2 42 22 0 24 -38 28 -47 4z"/>
<path d="M2114 665 c-8 -19 3 -35 26 -35 19 0 30 17 23 38 -6 17 -42 15 -49
-3z"/>
<path d="M1511 607 c-17 -21 -3 -49 23 -45 15 2 21 10 21 28 0 28 -26 38 -44
17z"/>
<path d="M1980 605 c-15 -18 2 -45 30 -45 23 0 34 28 19 46 -15 18 -33 18 -49
-1z"/>
<path d="M1791 564 c-17 -12 -26 -13 -34 -5 -6 6 -23 11 -39 11 -28 0 -48 -23
-48 -57 0 -23 79 -103 101 -103 20 0 119 103 119 124 0 17 -37 46 -60 46 -9 0
-26 -7 -39 -16z"/>
</g>
</svg>
